<mxfile host="app.diagrams.net" agent="Mozilla/5.0 (Macintosh; Intel Mac OS X 10_15_7) AppleWebKit/537.36 (KHTML, like Gecko) Chrome/139.0.0.0 Safari/537.36" version="27.2.0">
  <diagram name="Seite-1" id="-UyRnp7pN4u1oVRSI-fB">
    <mxGraphModel dx="1455" dy="1948" grid="1" gridSize="10" guides="1" tooltips="1" connect="1" arrows="1" fold="1" page="1" pageScale="1" pageWidth="827" pageHeight="1169" math="0" shadow="0">
      <root>
        <mxCell id="0" />
        <mxCell id="1" parent="0" />
        <mxCell id="WulgHTzPr-4XbaBLYJl2-1" value="" style="group;fillColor=#fad7ac;strokeColor=#b46504;fillStyle=hatch;container=0;" parent="1" vertex="1" connectable="0">
          <mxGeometry x="650" y="-860" width="540" height="220" as="geometry" />
        </mxCell>
        <mxCell id="WulgHTzPr-4XbaBLYJl2-2" value="" style="rounded=0;whiteSpace=wrap;html=1;fillColor=#ffe6cc;fillStyle=hatch;strokeColor=#d79b00;container=0;" parent="1" vertex="1">
          <mxGeometry x="650" y="-860" width="540" height="220" as="geometry" />
        </mxCell>
        <mxCell id="WulgHTzPr-4XbaBLYJl2-3" value="&lt;b&gt;HUB&lt;/b&gt;" style="rounded=0;whiteSpace=wrap;html=1;fillColor=#ffe6cc;strokeColor=#d79b00;container=0;" parent="1" vertex="1">
          <mxGeometry x="670" y="-840" width="500" height="23.13" as="geometry" />
        </mxCell>
        <mxCell id="WulgHTzPr-4XbaBLYJl2-5" value="" style="rounded=0;whiteSpace=wrap;html=1;fillColor=#dae8fc;strokeColor=#6c8ebf;container=0;" parent="1" vertex="1">
          <mxGeometry x="670" y="-790" width="240" height="130" as="geometry" />
        </mxCell>
        <mxCell id="WulgHTzPr-4XbaBLYJl2-6" value="&lt;b&gt;PIP Service&lt;/b&gt;" style="rounded=0;whiteSpace=wrap;html=1;fillColor=#e1d5e7;strokeColor=#9673a6;container=0;" parent="1" vertex="1">
          <mxGeometry x="684.5" y="-766" width="205.5" height="36" as="geometry" />
        </mxCell>
        <mxCell id="WulgHTzPr-4XbaBLYJl2-37" style="edgeStyle=orthogonalEdgeStyle;rounded=0;orthogonalLoop=1;jettySize=auto;html=1;entryX=0;entryY=0.5;entryDx=0;entryDy=0;" parent="1" source="WulgHTzPr-4XbaBLYJl2-7" target="WulgHTzPr-4XbaBLYJl2-18" edge="1">
          <mxGeometry relative="1" as="geometry">
            <Array as="points">
              <mxPoint x="140" y="-694" />
              <mxPoint x="140" y="-405" />
            </Array>
          </mxGeometry>
        </mxCell>
        <mxCell id="WulgHTzPr-4XbaBLYJl2-44" value="Analyse &amp;amp;&amp;nbsp;&lt;div&gt;Analyse-Permisison&lt;/div&gt;" style="edgeLabel;html=1;align=center;verticalAlign=middle;resizable=0;points=[];" parent="WulgHTzPr-4XbaBLYJl2-37" vertex="1" connectable="0">
          <mxGeometry x="-0.5463" y="-1" relative="1" as="geometry">
            <mxPoint as="offset" />
          </mxGeometry>
        </mxCell>
        <mxCell id="WulgHTzPr-4XbaBLYJl2-7" value="Policy Information Point (PIP)" style="rounded=0;whiteSpace=wrap;html=1;container=0;" parent="1" vertex="1">
          <mxGeometry x="684.5" y="-712" width="205.5" height="36" as="geometry" />
        </mxCell>
        <mxCell id="WulgHTzPr-4XbaBLYJl2-9" value="" style="rounded=0;whiteSpace=wrap;html=1;fillColor=#dae8fc;strokeColor=#6c8ebf;container=0;" parent="1" vertex="1">
          <mxGeometry x="930" y="-790" width="240" height="130" as="geometry" />
        </mxCell>
        <mxCell id="WulgHTzPr-4XbaBLYJl2-10" value="&lt;b&gt;PDP Service&lt;/b&gt;" style="rounded=0;whiteSpace=wrap;html=1;fillColor=#e1d5e7;strokeColor=#9673a6;container=0;" parent="1" vertex="1">
          <mxGeometry x="950" y="-766" width="200" height="36" as="geometry" />
        </mxCell>
        <mxCell id="WulgHTzPr-4XbaBLYJl2-12" value="Policy Distribution Point (PDP)" style="rounded=0;whiteSpace=wrap;html=1;container=0;" parent="1" vertex="1">
          <mxGeometry x="950" y="-712" width="200" height="36" as="geometry" />
        </mxCell>
        <mxCell id="WulgHTzPr-4XbaBLYJl2-16" value="" style="rounded=0;whiteSpace=wrap;html=1;fillColor=#ffe6cc;fillStyle=hatch;strokeColor=#d79b00;container=0;" parent="1" vertex="1">
          <mxGeometry x="180" y="-540" width="730" height="290" as="geometry" />
        </mxCell>
        <mxCell id="WulgHTzPr-4XbaBLYJl2-15" value="" style="group;fillColor=#fad7ac;strokeColor=#b46504;fillStyle=hatch;container=0;" parent="1" vertex="1" connectable="0">
          <mxGeometry x="180" y="-540" width="730" height="290" as="geometry" />
        </mxCell>
        <mxCell id="WulgHTzPr-4XbaBLYJl2-17" value="&lt;b&gt;NODE&lt;/b&gt;" style="rounded=0;whiteSpace=wrap;html=1;fillColor=#ffe6cc;strokeColor=#d79b00;container=0;" parent="1" vertex="1">
          <mxGeometry x="200" y="-520" width="690" height="23.13" as="geometry" />
        </mxCell>
        <mxCell id="WulgHTzPr-4XbaBLYJl2-18" value="" style="rounded=0;whiteSpace=wrap;html=1;fillColor=#dae8fc;strokeColor=#6c8ebf;container=0;" parent="1" vertex="1">
          <mxGeometry x="200" y="-470" width="240" height="170" as="geometry" />
        </mxCell>
        <mxCell id="WulgHTzPr-4XbaBLYJl2-19" value="&lt;b&gt;PDP Service&lt;/b&gt;" style="rounded=0;whiteSpace=wrap;html=1;fillColor=#e1d5e7;strokeColor=#9673a6;container=0;" parent="1" vertex="1">
          <mxGeometry x="214.5" y="-446" width="205.5" height="36" as="geometry" />
        </mxCell>
        <mxCell id="WulgHTzPr-4XbaBLYJl2-20" value="Policy Decision Point (PDP)" style="rounded=0;whiteSpace=wrap;html=1;container=0;" parent="1" vertex="1">
          <mxGeometry x="214.5" y="-392" width="205.5" height="36" as="geometry" />
        </mxCell>
        <mxCell id="WulgHTzPr-4XbaBLYJl2-28" value="" style="group" parent="1" vertex="1" connectable="0">
          <mxGeometry x="660" y="-360" width="210" height="100" as="geometry" />
        </mxCell>
        <mxCell id="WulgHTzPr-4XbaBLYJl2-29" value="" style="rounded=0;whiteSpace=wrap;html=1;fillColor=#dae8fc;strokeColor=#6c8ebf;container=0;" parent="WulgHTzPr-4XbaBLYJl2-28" vertex="1">
          <mxGeometry width="207.40740740740742" height="100" as="geometry" />
        </mxCell>
        <mxCell id="WulgHTzPr-4XbaBLYJl2-30" value="&lt;b&gt;Service B&lt;/b&gt;" style="rounded=0;whiteSpace=wrap;html=1;fillColor=#e1d5e7;strokeColor=#9673a6;container=0;" parent="WulgHTzPr-4XbaBLYJl2-28" vertex="1">
          <mxGeometry x="16.26" y="10" width="173.74" height="30" as="geometry" />
        </mxCell>
        <mxCell id="WulgHTzPr-4XbaBLYJl2-39" value="Policy Enforcer (PE)" style="rounded=0;whiteSpace=wrap;html=1;container=0;" parent="WulgHTzPr-4XbaBLYJl2-28" vertex="1">
          <mxGeometry x="16.262626262626263" y="50" width="172.2895622895623" height="36" as="geometry" />
        </mxCell>
        <mxCell id="WulgHTzPr-4XbaBLYJl2-32" style="edgeStyle=orthogonalEdgeStyle;rounded=0;orthogonalLoop=1;jettySize=auto;html=1;entryX=0.5;entryY=1;entryDx=0;entryDy=0;exitX=0;exitY=0.5;exitDx=0;exitDy=0;" parent="1" source="WulgHTzPr-4XbaBLYJl2-29" target="WulgHTzPr-4XbaBLYJl2-18" edge="1">
          <mxGeometry relative="1" as="geometry">
            <mxPoint x="630" y="-300" as="sourcePoint" />
          </mxGeometry>
        </mxCell>
        <mxCell id="WulgHTzPr-4XbaBLYJl2-34" value="Check Permission (inkl. Policy)" style="edgeLabel;html=1;align=center;verticalAlign=middle;resizable=0;points=[];" parent="WulgHTzPr-4XbaBLYJl2-32" vertex="1" connectable="0">
          <mxGeometry x="-0.1611" y="4" relative="1" as="geometry">
            <mxPoint as="offset" />
          </mxGeometry>
        </mxCell>
        <mxCell id="WulgHTzPr-4XbaBLYJl2-33" style="edgeStyle=orthogonalEdgeStyle;rounded=0;orthogonalLoop=1;jettySize=auto;html=1;entryX=1;entryY=0.5;entryDx=0;entryDy=0;" parent="1" source="WulgHTzPr-4XbaBLYJl2-21" target="WulgHTzPr-4XbaBLYJl2-18" edge="1">
          <mxGeometry relative="1" as="geometry" />
        </mxCell>
        <mxCell id="WulgHTzPr-4XbaBLYJl2-35" value="Check Permission (inkl. Policy)" style="edgeLabel;html=1;align=center;verticalAlign=middle;resizable=0;points=[];" parent="WulgHTzPr-4XbaBLYJl2-33" vertex="1" connectable="0">
          <mxGeometry x="0.1757" relative="1" as="geometry">
            <mxPoint as="offset" />
          </mxGeometry>
        </mxCell>
        <mxCell id="WulgHTzPr-4XbaBLYJl2-21" value="" style="rounded=0;whiteSpace=wrap;html=1;fillColor=#dae8fc;strokeColor=#6c8ebf;container=0;" parent="1" vertex="1">
          <mxGeometry x="660" y="-480" width="210" height="100" as="geometry" />
        </mxCell>
        <mxCell id="WulgHTzPr-4XbaBLYJl2-22" value="&lt;b&gt;Service A&lt;/b&gt;" style="rounded=0;whiteSpace=wrap;html=1;fillColor=#e1d5e7;strokeColor=#9673a6;container=0;" parent="1" vertex="1">
          <mxGeometry x="677.25" y="-470" width="172.75" height="29.4" as="geometry" />
        </mxCell>
        <mxCell id="WulgHTzPr-4XbaBLYJl2-40" value="Policy Enforcer (PE)" style="rounded=0;whiteSpace=wrap;html=1;container=0;" parent="1" vertex="1">
          <mxGeometry x="677.25" y="-430" width="172.75" height="36" as="geometry" />
        </mxCell>
        <mxCell id="WulgHTzPr-4XbaBLYJl2-42" style="edgeStyle=orthogonalEdgeStyle;rounded=0;orthogonalLoop=1;jettySize=auto;html=1;exitX=0.5;exitY=1;exitDx=0;exitDy=0;" parent="1" source="WulgHTzPr-4XbaBLYJl2-9" target="WulgHTzPr-4XbaBLYJl2-18" edge="1">
          <mxGeometry relative="1" as="geometry">
            <Array as="points">
              <mxPoint x="1050" y="-570" />
              <mxPoint x="320" y="-570" />
            </Array>
            <mxPoint x="1050" y="-630" as="sourcePoint" />
          </mxGeometry>
        </mxCell>
        <mxCell id="lP5T2bIqfrPNBuD9IsrM-1" value="Policy Engine (PE)" style="rounded=0;whiteSpace=wrap;html=1;container=0;" vertex="1" parent="1">
          <mxGeometry x="214.5" y="-350" width="205.5" height="36" as="geometry" />
        </mxCell>
      </root>
    </mxGraphModel>
  </diagram>
</mxfile>
